<?xml version="1.0" encoding="utf-8"?>
<!-- Generator: Adobe Illustrator 21.0.0, SVG Export Plug-In . SVG Version: 6.00 Build 0)  -->
<svg version="1.1" id="Layer_1" xmlns="http://www.w3.org/2000/svg" xmlns:xlink="http://www.w3.org/1999/xlink" x="0px" y="0px"
	 viewBox="0 0 920.3 154.9" style="enable-background:new 0 0 920.3 154.9;" xml:space="preserve">
<style type="text/css">
	.st0{fill:#FF7C00;}
	.st1{clip-path:url(#SVGID_2_);}
	.st2{fill:#131637;}
	.st3{fill:#DFDFDF;}
	.st4{fill:#FFFFFF;}
	.st5{enable-background:new    ;}
	.st6{clip-path:url(#SVGID_4_);}
</style>
<title>logo2_2</title>
<g id="Layer_2">
	<g id="Layer_3">
		<circle class="st0" cx="76.3" cy="73.4" r="73.4"/>
		<g>
			<defs>
				<circle id="SVGID_1_" cx="76.3" cy="73.4" r="73.4"/>
			</defs>
			<clipPath id="SVGID_2_">
				<use xlink:href="#SVGID_1_"  style="overflow:visible;"/>
			</clipPath>
			<g class="st1">
				<path class="st2" d="M90.2,69.8c22.2-11.9,48.4-10.6,44.1,19.7c-2.5,17.4-21.1,25.7-40.9,25.3c4.9,13.5,10,35.3,4.6,50.2
					c0.3,4.9-1.4,6.9-2.8,12.3l0.5,6.4c3.1,2.3,3.6,6.8,3.2,11.2H83l-0.2,1.2H67.4l-5.3-14.6c-5.4-0.4-11.5-1.2-17.4-1.9l-3.5,1.8
					l-0.5,2.8c2.5,2.4,2.9,6.5,2.5,10.6h-16l-2-12.9c-0.7,0.3-1.4,0.6-2.1,0.8l-0.8,2.5c2.5,2.4,2.5,6.7,1.4,10.8h-16v-20.1
					c5.5-4.6,3.1-8.4,4.4-16.4c-13.5-4.1-16-20.3-6.3-29.6c1.6-1.6,4.3-1.5,5.9,0.1c0.8,0.9,1.3,2.1,1.1,3.2
					c-0.6,6.4,0.3,12.5,7.2,14.2c3.1-2.1,16.4-8.1,20.5-10c-1.8-20.1-2.6-40.3-2.2-60.5c-7.8,0.5-14.9-5.2-13.2-13.1
					c1.8-8.4,18.4-31.3,31.8-15.1c2,2.5,3.5,5.2,4.8,8.1c1.6-0.2,3.3-0.4,4.9-0.5c0.4-4.8,1.7-10.8,5.3-13.7
					c8.3-6.7,22.4,0,26.6,9.3c3.4,7.8-3.6,14.7-10.9,13.9C88.4,67.3,89.2,68.6,90.2,69.8z M80.5,180.3l-1.4,0.3l0.2,3.9
					c0.9,0.5,1.6,1.2,2.2,2L80.5,180.3z"/>
				<path class="st3" d="M121.1,84.8c0.8,5.2,0.8,10.5,0,15.8c3.7-3,6.2-7.3,6.9-12c0.3-1.9,0.4-3.9,0.3-5.8
					C126,83.7,123.5,84.4,121.1,84.8z"/>
				<path class="st4" d="M121.1,84.8c0.5,3,0.7,6.1,0.6,9.2c2.3-1.6,4.4-3.4,6.3-5.4c0.3-1.9,0.4-3.9,0.3-5.8
					C126,83.7,123.5,84.4,121.1,84.8L121.1,84.8z"/>
				<path class="st4" d="M63.3,96.6c-0.9,0.5-1.7,1-2.5,1.6c14.5,10.7,37.7,13,52.8,6.8c1.9-6.4,2.3-13.1,1.1-19.7
					c-8.1-0.2-15.3-3.8-17.8-12.8c-3.1,1.2-6.2,2.6-9.1,4.2c-2.7,1.5-5.1-2.1-3-3.8c-2.5-3.9-4.1-8.3-4.7-12.9
					c-0.4-2.7,4-4.2,4.8-1.2c0,0.2,0.1,0.3,0.1,0.5c4,1.5,9.1-1.5,7.1-5.7c-2.2-4.7-12.1-9.6-16.4-5.7c-1.5,1.3-2.3,5.4-2.6,8.4h0.8
					c3.4,0.2,3.9,5.6,0,5.5c-5.6,0-11.2,0.8-16.6,2.4c-1.3-3.7-5.2-14.8-10.5-14.8c-5.8-0.1-15,11.8-15.1,16.7
					c0,4.5,6.7,5.9,9.5,3.2c2.6-2.5,4.3-4.7,5.1-7.5c0.7-2.6,4.8-2,4.7,0.7c-0.3,4-2,9.3-6.1,12.2c-0.6,23.3,0.6,43.2,2.5,66.6
					l-20.8,9.8c-14,6.6-4.1,19.1-12.3,27.6v10.9h3.8c0-1.2-0.5-2.4-1.4-3.3c-0.7-0.6-0.8-1.7-0.2-2.4c0.4-0.4,0.9-0.6,1.5-0.6H18
					l0.7-4.8c4.3-1.4,11.2-4.1,12.9-10.6c0.8-2.8,4.2-1.5,3.8,1.2c-0.2,1.2-0.4,2.4-0.8,3.5c8.6,0.3,18.3,1.8,26.9,2.4
					c1.1-4.7,2.1-10.3-3-18c-1.4-2.2,2.5-3.5,3.5-2c5,6.7,7.2,14.3,5.4,22.7l4.3,11.9H76c0.1-1.3-0.6-2.4-1.8-2.9
					c-0.9-0.4-1.3-1.4-0.9-2.2c0.2-0.4,0.4-0.7,0.8-0.9l-1.7-7.8c4.3-2.4,8.2-6.4,9.6-10.7c0.7-2.2,4.1-0.6,3.8,1.2
					c-0.4,2.1-1.1,4.2-2.1,6.1c6.7-3.4,9.8-10,10.2-20.5c0.5-12.5-3.4-27.3-7.5-37.6c-10.4-1.2-20.7-4.8-28.8-10.6
					c-0.4,2.1-0.2,3.8-1.6,4.7c-1.2,0.8-2.9,0.4-3.6-0.9c-0.2-0.3-0.3-0.7-0.4-1.1c-1-11.5,5.9-14.3,9.3-15
					C64,90.9,65.9,95.1,63.3,96.6L63.3,96.6z"/>
				<path class="st3" d="M63.3,96.6c-0.9,0.5-1.7,1-2.5,1.6c14.5,10.7,37.7,13,52.8,6.8c1.9-6.4,2.3-13.1,1.1-19.7
					c-8.1-0.2-15.3-3.8-17.8-12.8c-3.1,1.2-6.2,2.6-9.1,4.2c-2.7,1.5-5.1-2.1-3-3.8c-2.5-3.9-4.1-8.3-4.7-12.9
					c-0.4-2.7,4-4.2,4.8-1.2c0,0.2,0.1,0.3,0.1,0.5c4,1.5,9.1-1.5,7.1-5.7c-2.2-4.7-12.1-9.6-16.4-5.7c-1.5,1.3-2.3,5.4-2.6,8.4h0.8
					c3.4,0.2,3.9,5.6,0,5.5c-1.1,0-2.2,0-3.3,0c3.5,12-3.4,24.6-15.4,28.1c-1.8,0.5-3.8,0.8-5.7,0.9c-2.5,9.6-2.3,19.9,0.9,27.3
					c9.2,21.5,9.5,27.9-8.6,30.1c-7.1,0.9-11.4,2.8-15,6.2c1.2,6.5-2.6,9.7-8.5,9c-0.4,5.2,0.3,10.8-4,15.3v10.9h3.8
					c0-1.2-0.5-2.4-1.4-3.3c-0.7-0.6-0.8-1.7-0.2-2.4c0.4-0.4,0.9-0.6,1.5-0.6H18l0.7-4.8c4.3-1.4,11.2-4,12.9-10.5
					c0.8-2.8,4.2-1.5,3.8,1.2c-0.2,1.2-0.4,2.4-0.8,3.5c8.6,0.3,18.3,1.8,26.9,2.4c1.1-4.7,2.1-10.3-3-18c-1.4-2.2,2.5-3.5,3.5-2
					c5,6.7,7.2,14.3,5.4,22.7l4.3,11.9H76c0.1-1.3-0.6-2.4-1.8-2.9c-0.9-0.4-1.3-1.4-0.9-2.2c0.2-0.4,0.4-0.7,0.8-0.9l-1.7-7.8
					c4.3-2.4,8.2-6.4,9.6-10.7c0.7-2.2,4.1-0.6,3.8,1.2c-0.4,2.1-1.1,4.2-2.1,6.1c6.7-3.4,9.8-10,10.2-20.5
					c0.5-12.5-3.4-27.3-7.5-37.6c-10.4-1.2-20.7-4.8-28.8-10.6c-0.4,2.1-0.2,3.8-1.6,4.7c-1.2,0.8-2.9,0.4-3.6-0.9
					c-0.2-0.3-0.3-0.7-0.4-1.1c-1-11.5,5.9-14.3,9.3-15C64,90.9,65.9,95.1,63.3,96.6L63.3,96.6z"/>
				<path class="st4" d="M63.3,96.6c-0.9,0.5-1.7,1-2.5,1.6c17.1,7,37.7,8,54.3-0.3c0.5-4.2,0.4-8.5-0.3-12.6
					c-8.1-0.2-15.3-3.8-17.8-12.8c-3.1,1.2-6.2,2.6-9.1,4.2c-2.7,1.5-5.1-2.1-3-3.8c-2.5-3.9-4.1-8.3-4.7-12.9
					c-0.4-2.7,4-4.2,4.8-1.2c0,0.2,0.1,0.3,0.1,0.5c4,1.5,9.1-1.5,7.1-5.7c-2.2-4.7-12.1-9.6-16.4-5.7c-1.5,1.3-2.3,5.4-2.6,8.4h0.8
					c3.4,0.2,3.9,5.6,0,5.5c-1.1,0-2.2,0-3.3,0c3.5,12-3.4,24.6-15.4,28.1c-1.8,0.5-3.8,0.8-5.7,0.9c-2.5,9.6-2.3,19.9,0.9,27.3
					c9.2,21.5,9.5,27.9-8.6,30.1c-7.1,0.9-11.4,2.8-15,6.2c1.2,6.5-2.6,9.7-8.5,9c-0.4,5.2,0.3,10.8-4,15.3v10.9h3.8
					c0-1.2-0.5-2.4-1.4-3.3c-0.7-0.6-0.8-1.7-0.2-2.4c0.4-0.4,0.9-0.6,1.5-0.6H18l0.7-4.8c4.3-1.4,11.2-4,12.9-10.5
					c0.8-2.8,4.2-1.5,3.8,1.2c19.3,2.5,24.1-4.2,25.2-8.5c-0.6-1.3-1.2-2.5-2-3.6c-1.4-2.2,2.5-3.5,3.5-2c5,6.7,7.2,14.3,5.4,22.7
					l4.3,11.9H76c0.1-1.3-0.6-2.4-1.8-2.9c-0.9-0.4-1.3-1.4-0.9-2.2c0.2-0.4,0.4-0.7,0.8-0.9l-1.7-7.8c4.3-2.4,8.2-6.4,9.6-10.7
					c0.7-2.2,4.1-0.6,3.8,1.2c-0.4,2.1-1.1,4.2-2.1,6.1c6.7-3.4,9.8-10,10.2-20.5c0.5-12.5-3.4-27.3-7.5-37.6
					c-10.4-1.2-20.7-4.8-28.8-10.6c-0.4,2.1-0.2,3.8-1.6,4.7c-1.2,0.8-2.9,0.4-3.6-0.9c-0.2-0.3-0.3-0.7-0.4-1.1
					c-1-11.5,5.9-14.3,9.3-15C64,90.9,65.9,95.1,63.3,96.6L63.3,96.6z"/>
				<ellipse class="st2" cx="59.1" cy="77.6" rx="5" ry="6.9"/>
				<ellipse class="st2" cx="77.4" cy="73.4" rx="3.4" ry="4.8"/>
			</g>
		</g>
		<g class="st5">
			<path class="st2" d="M202,88h-6.5v28.8h-23.8V28.7h28.8c10.1,0,17.6,2.3,22.6,7c4.9,4.6,7.4,12.3,7.4,22.8
				c0,10.6-2.3,18.2-7,22.7C218.8,85.8,211.6,88,202,88z M204.7,68.9c0.9-1.6,1.3-4.5,1.3-8.7c0-4.2-0.5-7.1-1.4-8.8
				c-0.9-1.7-2.8-2.6-5.7-2.6h-3.4v22.4h4C202.1,71.3,203.8,70.5,204.7,68.9z"/>
			<path class="st2" d="M264.4,47.2c9.7,0,16.7,2.3,20.9,7c4.2,4.7,6.3,11.4,6.3,20.1c0,1.1-0.3,6.2-1,15.3h-32.3
				c0,7.1,3.3,10.6,9.8,10.6c3.1,0,9.2-1.1,18.3-3.3l2,17.6c-7.9,2.5-15.9,3.7-23.8,3.7c-9.7,0-17.2-3.2-22.4-9.6
				c-5.2-6.4-7.8-15.1-7.8-26C234.3,59,244.4,47.2,264.4,47.2z M263.9,67.5c-2.5,0-4.1,0.8-4.8,2.5c-0.8,1.7-1.1,4.2-1.1,7.6h12.3
				v-3.4C270.2,69.7,268.1,67.5,263.9,67.5z"/>
			<path class="st2" d="M336.5,117c-7,0.9-13.1,1.3-18.2,1.3c-5.2,0-9.2-1.3-12.1-4c-2.9-2.7-4.3-7.4-4.3-14V67.3h-6.8V49.7h7.9
				l1.3-13.1h21.4v13.1h12.6l-1,17.6h-11.8v28.2c0,2,0.9,3,2.8,3c0.2,0,3.1-0.1,8.8-0.4L336.5,117z"/>
			<path class="st2" d="M381.5,117c-7,0.9-13.1,1.3-18.2,1.3c-5.2,0-9.2-1.3-12.1-4c-2.9-2.7-4.3-7.4-4.3-14V67.3H340V49.7h7.9
				l1.3-13.1h21.4v13.1h12.6l-1,17.6h-11.8v28.2c0,2,0.9,3,2.8,3c0.2,0,3.1-0.1,8.8-0.4L381.5,117z"/>
			<path class="st2" d="M417.1,47.2c9.7,0,16.7,2.3,20.9,7c4.2,4.7,6.3,11.4,6.3,20.1c0,1.1-0.3,6.2-1,15.3H411
				c0,7.1,3.3,10.6,9.8,10.6c3.1,0,9.2-1.1,18.3-3.3l2,17.6c-7.9,2.5-15.9,3.7-23.8,3.7c-9.7,0-17.2-3.2-22.4-9.6
				c-5.2-6.4-7.8-15.1-7.8-26C387,59,397,47.2,417.1,47.2z M416.5,67.5c-2.5,0-4.1,0.8-4.8,2.5c-0.8,1.7-1.1,4.2-1.1,7.6h12.3v-3.4
				C422.9,69.7,420.8,67.5,416.5,67.5z"/>
			<path class="st2" d="M474.4,78.7v38.2h-23.6v-68h20.7L473,53h0.6c2.2-2.5,4.4-4,6.6-4.8c2.2-0.7,5.8-1.1,10.9-1.1l-1,22.7h-6.5
				c-3.7,0-6.1,0.6-7.3,1.7C475,72.7,474.4,75.1,474.4,78.7z"/>
			<path class="st2" d="M547.5,24.9c5.9,0,12,0.3,18.4,0.9l-2,20.7c-4.3-0.5-7.4-0.7-9.3-0.7c-1.9,0-2.9,0.9-2.9,2.6v2.6h11.6
				l-1.1,17.6H552v48.4h-23.7V68.4h-6.2V50.9h6.2v-7.1C528.3,31.2,534.7,24.9,547.5,24.9z"/>
			<path class="st2" d="M565.5,82.6c0-12.4,2.4-21.4,7.2-27c4.8-5.6,12.2-8.4,22.4-8.4c10.2,0,17.6,2.7,22.2,8.2
				c4.6,5.5,7,14.5,7,27c0,12.5-2.3,21.6-6.8,27.3c-4.5,5.7-12,8.5-22.3,8.5c-10.3,0-17.8-2.8-22.6-8.5
				C567.8,104.1,565.5,95,565.5,82.6z M599.6,69.2c-0.6-1.9-2.2-2.8-4.6-2.8c-2.5,0-4,0.9-4.7,2.8c-0.7,1.9-1,5.9-1,11.9v3.4
				c0,6.7,0.3,11.1,1,13.1c0.7,2,2.2,3,4.6,3s3.9-1,4.6-3c0.7-2,1-6.1,1-12.2v-4.1C600.5,75.1,600.2,71.1,599.6,69.2z"/>
			<path class="st2" d="M655.1,78.7v38.2h-23.6v-68h20.7l1.4,4.1h0.6c2.2-2.5,4.4-4,6.6-4.8c2.2-0.7,5.8-1.1,10.9-1.1l-1,22.7h-6.5
				c-3.7,0-6.1,0.6-7.3,1.7C655.7,72.7,655.1,75.1,655.1,78.7z"/>
			<path class="st2" d="M764.1,48.9l-14.5,68h-33.5l-14.6-68h25l6.1,43.6h1.8l6.5-43.6H764.1z"/>
			<path class="st2" d="M797.3,47.2c9.7,0,16.7,2.3,20.9,7c4.2,4.7,6.3,11.4,6.3,20.1c0,1.1-0.3,6.2-1,15.3h-32.3
				c0,7.1,3.3,10.6,9.8,10.6c3.1,0,9.2-1.1,18.3-3.3l2,17.6c-7.9,2.5-15.9,3.7-23.8,3.7c-9.7,0-17.2-3.2-22.4-9.6
				c-5.2-6.4-7.8-15.1-7.8-26C767.2,59,777.3,47.2,797.3,47.2z M796.7,67.5c-2.5,0-4.1,0.8-4.8,2.5c-0.8,1.7-1.1,4.2-1.1,7.6h12.3
				v-3.4C803.1,69.7,801,67.5,796.7,67.5z"/>
			<path class="st2" d="M869.4,117c-7,0.9-13.1,1.3-18.2,1.3c-5.2,0-9.2-1.3-12.1-4c-2.9-2.7-4.3-7.4-4.3-14V67.3H828V49.7h7.9
				l1.3-13.1h21.4v13.1h12.6l-1,17.6h-11.8v28.2c0,2,0.9,3,2.8,3c0.2,0,3.1-0.1,8.8-0.4L869.4,117z"/>
			<path class="st2" d="M872.4,68.9c0-6.9,2.1-12.2,6.3-16c4.2-3.8,10-5.7,17.4-5.7s14.8,0.9,22.4,2.8l-2.4,19.7
				c-9.6-2.2-16.1-3.3-19.4-3.3c-2,0-3,0.8-3,2.4c0,1,1.1,2,3.3,2.8c7.6,2.7,13.3,5.9,17.1,9.4c3.8,3.5,5.7,8.8,5.7,15.7
				c0,7-1.8,12.3-5.4,16c-3.6,3.6-9.1,5.5-16.5,5.5c-7.4,0-14.8-0.9-22.2-2.8l1.6-19.2c9.5,2.6,15.6,3.8,18.4,3.8
				c2.8,0,4.2-0.7,4.2-2c0-1.3-1-2.4-3.1-3.1c-8.4-3.2-14.6-6.6-18.4-10.3C874.3,81.1,872.4,75.8,872.4,68.9z"/>
		</g>
	</g>
</g>
<g id="Layer_2_1_">
	<g id="Layer_3_1_">
		<circle class="st0" cx="46.3" cy="-368.6" r="73.4"/>
		<g>
			<defs>
				<circle id="SVGID_3_" cx="46.3" cy="-368.6" r="73.4"/>
			</defs>
			<clipPath id="SVGID_4_">
				<use xlink:href="#SVGID_3_"  style="overflow:visible;"/>
			</clipPath>
			<g class="st6">
				<path class="st2" d="M60.2-372.2c22.2-11.9,48.4-10.6,44.1,19.7c-2.5,17.4-21.1,25.6-40.9,25.3c4.9,13.5,10,35.3,4.6,50.2
					c0.3,4.9-1.4,6.9-2.8,12.3l0.5,6.4c3.1,2.3,3.6,6.8,3.2,11.2H53l-0.2,1.2H37.4l-5.3-14.6c-5.4-0.4-11.5-1.2-17.4-1.9l-3.5,1.8
					l-0.5,2.8c2.5,2.4,2.9,6.5,2.5,10.6h-16l-2-12.9c-0.7,0.3-1.4,0.6-2.1,0.8l-0.8,2.5c2.5,2.4,2.5,6.7,1.4,10.8h-16v-20.1
					c5.5-4.6,3.1-8.4,4.4-16.4c-13.5-4.1-16-20.3-6.3-29.6c1.6-1.6,4.3-1.5,5.9,0.1c0.8,0.9,1.3,2.1,1.1,3.2
					c-0.6,6.4,0.3,12.5,7.2,14.2c3.1-2.1,16.4-8.1,20.5-10c-1.8-20.1-2.6-40.3-2.2-60.5c-7.8,0.5-14.9-5.2-13.2-13.1
					c1.8-8.4,18.4-31.3,31.8-15.1c2,2.5,3.5,5.2,4.8,8.1c1.6-0.2,3.3-0.4,4.9-0.5c0.4-4.8,1.7-10.8,5.3-13.7
					c8.3-6.7,22.4,0,26.6,9.4c3.4,7.8-3.6,14.7-10.9,13.9C58.4-374.7,59.2-373.4,60.2-372.2z M50.5-261.7l-1.4,0.3l0.2,3.9
					c0.9,0.5,1.6,1.2,2.2,2L50.5-261.7z"/>
				<path class="st3" d="M91.1-357.2c0.8,5.2,0.8,10.5,0,15.8c3.7-3,6.2-7.3,6.9-12c0.3-1.9,0.4-3.9,0.3-5.8
					C96-358.3,93.5-357.6,91.1-357.2z"/>
				<path class="st4" d="M91.1-357.2c0.5,3,0.7,6.1,0.6,9.2c2.3-1.6,4.4-3.4,6.3-5.4c0.3-1.9,0.4-3.9,0.3-5.8
					C96-358.3,93.5-357.6,91.1-357.2L91.1-357.2z"/>
				<path class="st4" d="M33.3-345.4c-0.9,0.5-1.7,1-2.5,1.6c14.5,10.7,37.7,13,52.8,6.8c1.9-6.4,2.3-13.1,1.1-19.7
					c-8.1-0.1-15.3-3.8-17.8-12.8c-3.1,1.2-6.2,2.6-9.1,4.2c-2.7,1.5-5.1-2.1-3-3.8c-2.5-3.9-4.1-8.3-4.7-12.9
					c-0.4-2.6,4-4.2,4.8-1.1c0,0.2,0.1,0.3,0.1,0.5c4,1.6,9.1-1.5,7.1-5.7c-2.2-4.8-12.1-9.6-16.4-5.7c-1.5,1.3-2.3,5.4-2.6,8.4h0.8
					c3.4,0.2,3.9,5.6,0,5.5c-5.6,0-11.2,0.8-16.6,2.4c-1.3-3.7-5.2-14.8-10.5-14.8c-5.8-0.1-15,11.8-15.1,16.7
					c0,4.5,6.7,5.9,9.5,3.2c2.6-2.5,4.3-4.7,5.1-7.5c0.7-2.6,4.8-2,4.7,0.7c-0.3,3.9-2,9.3-6.1,12.2c-0.6,23.3,0.6,43.2,2.5,66.6
					l-20.8,9.8c-14,6.6-4.1,19.1-12.3,27.6v10.9h3.8c0-1.2-0.5-2.4-1.4-3.3c-0.7-0.6-0.8-1.7-0.2-2.4c0.4-0.4,0.9-0.6,1.5-0.6h0.2
					l0.7-4.8c4.3-1.4,11.2-4.1,12.9-10.6c0.8-2.8,4.2-1.5,3.8,1.2c-0.2,1.2-0.4,2.4-0.8,3.5c8.6,0.3,18.3,1.8,26.9,2.4
					c1.1-4.7,2.1-10.3-3-18c-1.4-2.2,2.5-3.5,3.5-2c5,6.7,7.2,14.3,5.4,22.7l4.3,11.9H46c0.1-1.3-0.6-2.4-1.8-2.9
					c-0.9-0.4-1.3-1.4-0.9-2.2c0.2-0.4,0.4-0.7,0.8-0.9l-1.7-7.8c4.3-2.4,8.2-6.4,9.6-10.7c0.7-2.2,4.1-0.6,3.8,1.2
					c-0.4,2.1-1.1,4.2-2.1,6.1c6.7-3.4,9.8-10,10.2-20.5c0.5-12.5-3.4-27.3-7.5-37.6c-10.4-1.2-20.7-4.8-28.8-10.6
					c-0.4,2.1-0.2,3.8-1.6,4.7c-1.2,0.8-2.9,0.4-3.6-0.9c-0.2-0.3-0.3-0.7-0.4-1.1c-1-11.5,5.9-14.3,9.3-15
					C34-351.1,35.9-346.9,33.3-345.4L33.3-345.4z"/>
				<path class="st3" d="M33.3-345.4c-0.9,0.5-1.7,1-2.5,1.6c14.5,10.7,37.7,13,52.8,6.8c1.9-6.4,2.3-13.1,1.1-19.7
					c-8.1-0.1-15.3-3.8-17.8-12.8c-3.1,1.2-6.2,2.6-9.1,4.2c-2.7,1.5-5.1-2.1-3-3.8c-2.5-3.9-4.1-8.3-4.7-12.9
					c-0.4-2.6,4-4.2,4.8-1.1c0,0.2,0.1,0.3,0.1,0.5c4,1.6,9.1-1.5,7.1-5.7c-2.2-4.8-12.1-9.6-16.4-5.7c-1.5,1.3-2.3,5.4-2.6,8.4h0.8
					c3.4,0.2,3.9,5.6,0,5.5c-1.1,0-2.2,0-3.3,0c3.5,12-3.4,24.6-15.4,28.1c-1.8,0.5-3.8,0.8-5.7,0.9c-2.5,9.6-2.3,19.9,0.9,27.3
					c9.2,21.5,9.5,27.9-8.6,30.1c-7.1,0.9-11.4,2.8-15,6.2c1.2,6.5-2.6,9.7-8.5,9c-0.4,5.2,0.3,10.8-4,15.3v10.9h3.8
					c0-1.2-0.5-2.4-1.4-3.3c-0.7-0.6-0.8-1.7-0.2-2.4c0.4-0.4,0.9-0.6,1.5-0.6h0.2l0.7-4.8c4.3-1.4,11.2-4,12.9-10.5
					c0.8-2.8,4.2-1.5,3.8,1.2c-0.2,1.2-0.4,2.4-0.8,3.5c8.6,0.3,18.3,1.8,26.9,2.4c1.1-4.7,2.1-10.3-3-18c-1.4-2.2,2.5-3.5,3.5-2
					c5,6.7,7.2,14.3,5.4,22.7l4.3,11.9H46c0.1-1.3-0.6-2.4-1.8-2.9c-0.9-0.4-1.3-1.4-0.9-2.2c0.2-0.4,0.4-0.7,0.8-0.9l-1.7-7.8
					c4.3-2.4,8.2-6.4,9.6-10.7c0.7-2.2,4.1-0.6,3.8,1.2c-0.4,2.1-1.1,4.2-2.1,6.1c6.7-3.4,9.8-10,10.2-20.5
					c0.5-12.5-3.4-27.3-7.5-37.6c-10.4-1.2-20.7-4.8-28.8-10.6c-0.4,2.1-0.2,3.8-1.6,4.7c-1.2,0.8-2.9,0.4-3.6-0.9
					c-0.2-0.3-0.3-0.7-0.4-1.1c-1-11.5,5.9-14.3,9.3-15C34-351.1,35.9-346.9,33.3-345.4L33.3-345.4z"/>
				<path class="st4" d="M33.3-345.4c-0.9,0.5-1.7,1-2.5,1.6c17.1,7,37.7,8,54.3-0.3c0.5-4.2,0.4-8.5-0.3-12.6
					c-8.1-0.1-15.3-3.8-17.8-12.8c-3.1,1.2-6.2,2.6-9.1,4.2c-2.7,1.5-5.1-2.1-3-3.8c-2.5-3.9-4.1-8.3-4.7-12.9
					c-0.4-2.6,4-4.2,4.8-1.1c0,0.2,0.1,0.3,0.1,0.5c4,1.6,9.1-1.5,7.1-5.7c-2.2-4.8-12.1-9.6-16.4-5.7c-1.5,1.3-2.3,5.4-2.6,8.4h0.8
					c3.4,0.2,3.9,5.6,0,5.5c-1.1,0-2.2,0-3.3,0c3.5,12-3.4,24.6-15.4,28.1c-1.8,0.5-3.8,0.8-5.7,0.9c-2.5,9.6-2.3,19.9,0.9,27.3
					c9.2,21.5,9.5,27.9-8.6,30.1c-7.1,0.9-11.4,2.8-15,6.2c1.2,6.5-2.6,9.7-8.5,9c-0.4,5.2,0.3,10.8-4,15.3v10.9h3.8
					c0-1.2-0.5-2.4-1.4-3.3c-0.7-0.6-0.8-1.7-0.2-2.4c0.4-0.4,0.9-0.6,1.5-0.6h0.2l0.7-4.8c4.3-1.4,11.2-4,12.9-10.5
					c0.8-2.8,4.2-1.5,3.8,1.2c19.3,2.5,24.1-4.2,25.2-8.5c-0.6-1.3-1.2-2.5-2-3.6c-1.4-2.2,2.5-3.5,3.5-2c5,6.7,7.2,14.3,5.4,22.7
					l4.3,11.9H46c0.1-1.3-0.6-2.4-1.8-2.9c-0.9-0.4-1.3-1.4-0.9-2.2c0.2-0.4,0.4-0.7,0.8-0.9l-1.7-7.8c4.3-2.4,8.2-6.4,9.6-10.7
					c0.7-2.2,4.1-0.6,3.8,1.2c-0.4,2.1-1.1,4.2-2.1,6.1c6.7-3.4,9.8-10,10.2-20.5c0.5-12.5-3.4-27.3-7.5-37.6
					c-10.4-1.2-20.7-4.8-28.8-10.6c-0.4,2.1-0.2,3.8-1.6,4.7c-1.2,0.8-2.9,0.4-3.6-0.9c-0.2-0.3-0.3-0.7-0.4-1.1
					c-1-11.5,5.9-14.3,9.3-15C34-351.1,35.9-346.9,33.3-345.4L33.3-345.4z"/>
				<ellipse class="st2" cx="29.1" cy="-364.4" rx="5" ry="6.9"/>
				<ellipse class="st2" cx="47.4" cy="-368.6" rx="3.4" ry="4.8"/>
			</g>
		</g>
		<text transform="matrix(1 0 0 1 135.39 -325.17)" class="st2" style="font-family:'PassionOne-Regular'; font-size:141.88px;">Petter for vets</text>
	</g>
</g>
</svg>
