<svg xmlns="http://www.w3.org/2000/svg" xmlns:xlink="http://www.w3.org/1999/xlink" viewBox="0 0 564.98 196.1"><defs><style>.cls-1{fill:none;}.cls-2{fill:#ff7c00;}.cls-3{clip-path:url(#clip-path);}.cls-4{fill:#131637;}.cls-5{fill:#dfdfdf;}.cls-6{fill:#fff;}</style><clipPath id="clip-path"><circle class="cls-1" cx="76.36" cy="73.4" r="73.4"/></clipPath></defs><title>logo-dashboard_1</title><g id="Layer_2" data-name="Layer 2"><g id="Layer_1-2" data-name="Layer 1"><circle class="cls-2" cx="76.36" cy="73.4" r="73.4"/><g class="cls-3"><path class="cls-4" d="M90.26,69.8c22.2-11.9,48.4-10.6,44.1,19.7-2.5,17.4-21.1,25.7-40.9,25.3,4.9,13.5,10,35.3,4.6,50.2.3,4.9-1.4,6.9-2.8,12.3l.5,6.4c3.1,2.3,3.6,6.8,3.2,11.2H83.06l-.2,1.2H67.46l-5.3-14.6c-5.4-.4-11.5-1.2-17.4-1.9l-3.5,1.8-.5,2.8c2.5,2.4,2.9,6.5,2.5,10.6h-16l-2-12.9a18,18,0,0,1-2.1.8l-.8,2.5c2.5,2.4,2.5,6.7,1.4,10.8h-16V175.9c5.5-4.6,3.1-8.4,4.4-16.4-13.5-4.1-16-20.3-6.3-29.6a4.23,4.23,0,0,1,5.9.1,4,4,0,0,1,1.1,3.2c-.6,6.4.3,12.5,7.2,14.2,3.1-2.1,16.4-8.1,20.5-10a555.18,555.18,0,0,1-2.2-60.5c-7.8.5-14.9-5.2-13.2-13.1C27,55.4,43.56,32.5,57,48.7a36.81,36.81,0,0,1,4.8,8.1c1.6-.2,3.3-.4,4.9-.5.4-4.8,1.7-10.8,5.3-13.7,8.3-6.7,22.4,0,26.6,9.3C102,59.7,95,66.6,87.7,65.8A23,23,0,0,0,90.26,69.8Zm-9.7,110.5-1.4.3.2,3.9a7,7,0,0,1,2.2,2Z"/><path class="cls-5" d="M121.16,84.8a52.31,52.31,0,0,1,0,15.8,19.17,19.17,0,0,0,6.9-12,28.22,28.22,0,0,0,.3-5.8A36.7,36.7,0,0,1,121.16,84.8Z"/><path class="cls-6" d="M121.16,84.8a46.93,46.93,0,0,1,.6,9.2,40.8,40.8,0,0,0,6.3-5.4,28.22,28.22,0,0,0,.3-5.8A36.7,36.7,0,0,1,121.16,84.8Z"/><path class="cls-6" d="M63.36,96.6a21.28,21.28,0,0,0-2.5,1.6c14.5,10.7,37.7,13,52.8,6.8a42.36,42.36,0,0,0,1.1-19.7c-8.1-.2-15.3-3.8-17.8-12.8a75,75,0,0,0-9.1,4.2c-2.7,1.5-5.1-2.1-3-3.8A31.41,31.41,0,0,1,80.16,60c-.4-2.7,4-4.2,4.8-1.2,0,.2.1.3.1.5,4,1.5,9.1-1.5,7.1-5.7-2.2-4.7-12.1-9.6-16.4-5.7-1.5,1.3-2.3,5.4-2.6,8.4H74c3.4.2,3.9,5.6,0,5.5a58.47,58.47,0,0,0-16.6,2.4c-1.3-3.7-5.2-14.8-10.5-14.8-5.8-.1-15,11.8-15.1,16.7,0,4.5,6.7,5.9,9.5,3.2,2.6-2.5,4.3-4.7,5.1-7.5.7-2.6,4.8-2,4.7.7-.3,4-2,9.3-6.1,12.2-.6,23.3.6,43.2,2.5,66.6l-20.8,9.8c-14,6.6-4.1,19.1-12.3,27.6v10.9h3.8a4.71,4.71,0,0,0-1.4-3.3,1.73,1.73,0,0,1-.2-2.4,2,2,0,0,1,1.5-.6h0l.7-4.8c4.3-1.4,11.2-4.1,12.9-10.6.8-2.8,4.2-1.5,3.8,1.2a19.82,19.82,0,0,1-.8,3.5c8.6.3,18.3,1.8,26.9,2.4,1.1-4.7,2.1-10.3-3-18-1.4-2.2,2.5-3.5,3.5-2,5,6.7,7.2,14.3,5.4,22.7l4.3,11.9h4.3a2.83,2.83,0,0,0-1.8-2.9,1.64,1.64,0,0,1-.93-2.12l0-.08a1.76,1.76,0,0,1,.8-.9l-1.7-7.8c4.3-2.4,8.2-6.4,9.6-10.7.7-2.2,4.1-.6,3.8,1.2a22.06,22.06,0,0,1-2.1,6.1c6.7-3.4,9.8-10,10.2-20.5.5-12.5-3.4-27.3-7.5-37.6-10.4-1.2-20.7-4.8-28.8-10.6-.4,2.1-.2,3.8-1.6,4.7a2.53,2.53,0,0,1-3.5-.74l-.1-.16a3.58,3.58,0,0,1-.4-1.1c-1-11.5,5.9-14.3,9.3-15,2.7-.5,4.6,3.7,2,5.2Z"/><path class="cls-5" d="M63.36,96.6a21.28,21.28,0,0,0-2.5,1.6c14.5,10.7,37.7,13,52.8,6.8a42.36,42.36,0,0,0,1.1-19.7c-8.1-.2-15.3-3.8-17.8-12.8a75,75,0,0,0-9.1,4.2c-2.7,1.5-5.1-2.1-3-3.8A31.41,31.41,0,0,1,80.16,60c-.4-2.7,4-4.2,4.8-1.2,0,.2.1.3.1.5,4,1.5,9.1-1.5,7.1-5.7-2.2-4.7-12.1-9.6-16.4-5.7-1.5,1.3-2.3,5.4-2.6,8.4H74c3.4.2,3.9,5.6,0,5.5H70.7A22.68,22.68,0,0,1,55.3,89.9a27.1,27.1,0,0,1-5.7.9c-2.5,9.6-2.3,19.9.9,27.3,9.2,21.5,9.5,27.9-8.6,30.1-7.1.9-11.4,2.8-15,6.2,1.2,6.5-2.6,9.7-8.5,9-.4,5.2.3,10.8-4,15.3v10.9h3.8a4.71,4.71,0,0,0-1.4-3.3,1.73,1.73,0,0,1-.2-2.4,2,2,0,0,1,1.5-.6h0l.7-4.8c4.3-1.4,11.2-4,12.9-10.5.8-2.8,4.2-1.5,3.8,1.2a19.82,19.82,0,0,1-.8,3.5c8.6.3,18.3,1.8,26.9,2.4,1.1-4.7,2.1-10.3-3-18-1.4-2.2,2.5-3.5,3.5-2,5,6.7,7.2,14.3,5.4,22.7l4.3,11.9h4.3a2.83,2.83,0,0,0-1.8-2.9,1.64,1.64,0,0,1-.93-2.12l0-.08a1.76,1.76,0,0,1,.8-.9l-1.7-7.8c4.3-2.4,8.2-6.4,9.6-10.7.7-2.2,4.1-.6,3.8,1.2a22.06,22.06,0,0,1-2.1,6.1c6.7-3.4,9.8-10,10.2-20.5.5-12.5-3.4-27.3-7.5-37.6-10.4-1.2-20.7-4.8-28.8-10.6-.4,2.1-.2,3.8-1.6,4.7a2.53,2.53,0,0,1-3.5-.74l-.1-.16a3.58,3.58,0,0,1-.4-1.1c-1-11.5,5.9-14.3,9.3-15,2.7-.6,4.6,3.6,2,5.1Z"/><path class="cls-6" d="M63.36,96.6a21.28,21.28,0,0,0-2.5,1.6c17.1,7,37.7,8,54.3-.3a44.27,44.27,0,0,0-.3-12.6c-8.1-.2-15.3-3.8-17.8-12.8A75,75,0,0,0,88,76.7c-2.7,1.5-5.1-2.1-3-3.8A31.41,31.41,0,0,1,80.26,60c-.4-2.7,4-4.2,4.8-1.2,0,.2.1.3.1.5,4,1.5,9.1-1.5,7.1-5.7-2.2-4.7-12.1-9.6-16.4-5.7-1.5,1.3-2.3,5.4-2.6,8.4h.8c3.4.2,3.9,5.6,0,5.5h-3.3a22.68,22.68,0,0,1-15.4,28.1,27.1,27.1,0,0,1-5.7.9c-2.5,9.6-2.3,19.9.9,27.3,9.2,21.5,9.5,27.9-8.6,30.1-7.1.9-11.4,2.8-15,6.2,1.2,6.5-2.6,9.7-8.5,9-.4,5.2.3,10.8-4,15.3v10.9h3.8a4.71,4.71,0,0,0-1.4-3.3,1.73,1.73,0,0,1-.2-2.4,2,2,0,0,1,1.5-.6h-.1l.7-4.8c4.3-1.4,11.2-4,12.9-10.5.8-2.8,4.2-1.5,3.8,1.2,19.3,2.5,24.1-4.2,25.2-8.5a20.83,20.83,0,0,0-2-3.6c-1.4-2.2,2.5-3.5,3.5-2,5,6.7,7.2,14.3,5.4,22.7l4.3,11.9h4.2a2.83,2.83,0,0,0-1.8-2.9,1.64,1.64,0,0,1-.93-2.12l0-.08a1.76,1.76,0,0,1,.8-.9l-1.7-7.8c4.3-2.4,8.2-6.4,9.6-10.7.7-2.2,4.1-.6,3.8,1.2a22.06,22.06,0,0,1-2.1,6.1c6.7-3.4,9.8-10,10.2-20.5.5-12.5-3.4-27.3-7.5-37.6-10.4-1.2-20.7-4.8-28.8-10.6-.4,2.1-.2,3.8-1.6,4.7a2.53,2.53,0,0,1-3.5-.74l-.1-.16a3.58,3.58,0,0,1-.4-1.1c-1-11.5,5.9-14.3,9.3-15,2.7-.6,4.6,3.6,2,5.1Z"/><ellipse class="cls-4" cx="59.16" cy="77.6" rx="5" ry="6.9"/><ellipse class="cls-4" cx="77.46" cy="73.4" rx="3.4" ry="4.8"/></g><path class="cls-4" d="M275.88,87.9h-6.5v28.8h-23.8V28.6h28.8c10.1,0,17.6,2.3,22.6,7s7.4,12.3,7.4,22.8-2.3,18.2-7,22.7S285.48,87.9,275.88,87.9Zm2.7-19.1c.9-1.6,1.3-4.5,1.3-8.7s-.5-7.1-1.4-8.8-2.8-2.6-5.7-2.6h-3.4V71.1h4C276,71.2,277.68,70.4,278.58,68.8Z"/><path class="cls-4" d="M338.28,47.1c9.7,0,16.7,2.3,20.9,7s6.3,11.4,6.3,20.1c0,1.1-.3,6.2-1,15.3h-32.3c0,7.1,3.3,10.6,9.8,10.6q4.65,0,18.3-3.3l2,17.6a78.73,78.73,0,0,1-23.8,3.7c-9.7,0-17.2-3.2-22.4-9.6s-7.8-15.1-7.8-26C308.18,58.9,318.28,47.1,338.28,47.1Zm-.46,20.3c-2.5,0-4.1.8-4.8,2.5a20.68,20.68,0,0,0-1.1,7.6h12.3V74.1C344.08,69.6,342,67.4,337.82,67.4Z"/><path class="cls-4" d="M410.38,116.9a144.77,144.77,0,0,1-18.2,1.3c-5.2,0-9.2-1.3-12.1-4s-4.3-7.4-4.3-14v-33H369V49.6h7.9l1.3-13.1h21.4V49.6h12.6l-1,17.6h-11.8V95.4c0,2,.9,3,2.8,3,.2,0,3.1-.1,8.8-.4Z"/><path class="cls-4" d="M455.38,116.9a144.77,144.77,0,0,1-18.2,1.3c-5.2,0-9.2-1.3-12.1-4s-4.3-7.4-4.3-14v-33h-6.9V49.6h7.94l1.3-13.1h21.4V49.6h12.6l-1,17.6h-11.8V95.4c0,2,.9,3,2.8,3,.2,0,3.1-.1,8.8-.4Z"/><path class="cls-4" d="M491,47.1c9.7,0,16.7,2.3,20.9,7s6.3,11.4,6.3,20.1c0,1.1-.3,6.2-1,15.3h-32.3c0,7.1,3.3,10.6,9.8,10.6q4.65,0,18.3-3.3l2,17.6a78.73,78.73,0,0,1-23.8,3.7c-9.7,0-17.2-3.2-22.4-9.6s-7.8-15.1-7.8-26Q460.82,47.1,491,47.1Zm-.6,20.3c-2.5,0-4.1.8-4.8,2.5a20.68,20.68,0,0,0-1.1,7.6h12.34V74.1C496.82,69.6,494.68,67.4,490.38,67.4Z"/><path class="cls-4" d="M548.28,78.6v38.2h-23.6v-68h20.7l1.5,4.1h.6a16.27,16.27,0,0,1,6.6-4.8c2.2-.7,5.8-1.1,10.9-1.1l-1,22.7h-6.5c-3.7,0-6.1.6-7.3,1.7S548.28,75,548.28,78.6Z"/></g></g></svg>