<?xml version="1.0" encoding="utf-8"?>
<!-- Generator: Adobe Illustrator 21.0.0, SVG Export Plug-In . SVG Version: 6.00 Build 0)  -->
<svg version="1.1" id="Layer_1" xmlns="http://www.w3.org/2000/svg" xmlns:xlink="http://www.w3.org/1999/xlink" x="0px" y="0px"
	 viewBox="0 0 491.2 172.9" style="enable-background:new 0 0 491.2 172.9;" xml:space="preserve">
<style type="text/css">
	.st0{fill:#FF7C00;}
	.st1{clip-path:url(#SVGID_2_);}
	.st2{fill:#131637;}
	.st3{fill:#DFDFDF;}
	.st4{fill:#FFFFFF;}
</style>
<title>logo</title>
<g id="Layer_2">
	<g id="Layer_1-2">
		<g id="Layer_2-2">
			<g id="Layer_3">
				<circle class="st0" cx="76.4" cy="73.4" r="73.4"/>
				<g>
					<defs>
						<circle id="SVGID_1_" cx="76.4" cy="73.4" r="73.4"/>
					</defs>
					<clipPath id="SVGID_2_">
						<use xlink:href="#SVGID_1_"  style="overflow:visible;"/>
					</clipPath>
					<g class="st1">
						<path class="st2" d="M90.3,69.8c22.2-11.9,48.4-10.6,44.1,19.7c-2.5,17.4-21.1,25.7-40.9,25.3c4.9,13.5,10,35.3,4.6,50.2
							c0.3,4.9-1.4,6.9-2.8,12.3l0.5,6.4c3.1,2.3,3.6,6.8,3.2,11.2H83.1l-0.2,1.2H67.5l-5.3-14.6c-5.4-0.4-11.5-1.2-17.4-1.9
							l-3.5,1.8l-0.5,2.8c2.5,2.4,2.9,6.5,2.5,10.6h-16l-2-12.9c-0.7,0.3-1.4,0.6-2.1,0.8l-0.8,2.5c2.5,2.4,2.5,6.7,1.4,10.8h-16
							v-20.1c5.5-4.6,3.1-8.4,4.4-16.4c-13.5-4.1-16-20.3-6.3-29.6c1.7-1.6,4.3-1.5,5.9,0.1c0.8,0.9,1.2,2,1.1,3.2
							c-0.6,6.4,0.3,12.5,7.2,14.2c3.1-2.1,16.4-8.1,20.5-10c-1.8-20.1-2.6-40.3-2.2-60.5c-7.8,0.5-14.9-5.2-13.2-13.1
							C27,55.4,43.6,32.5,57,48.7c1.9,2.5,3.6,5.2,4.8,8.1c1.6-0.2,3.3-0.4,4.9-0.5c0.4-4.8,1.7-10.8,5.3-13.7
							c8.3-6.7,22.4,0,26.6,9.3c3.4,7.8-3.6,14.7-10.9,13.9C88.4,67.2,89.3,68.6,90.3,69.8z M80.6,180.3l-1.4,0.3l0.2,3.9
							c0.9,0.5,1.6,1.2,2.2,2L80.6,180.3z"/>
						<path class="st3" d="M121.2,84.8c0.8,5.2,0.8,10.6,0,15.8c3.7-3,6.2-7.3,6.9-12c0.3-1.9,0.4-3.9,0.3-5.8
							C126,83.7,123.6,84.4,121.2,84.8z"/>
						<path class="st4" d="M121.2,84.8c0.5,3,0.7,6.1,0.6,9.2c2.3-1.6,4.4-3.4,6.3-5.4c0.3-1.9,0.4-3.9,0.3-5.8
							C126,83.7,123.6,84.4,121.2,84.8z"/>
						<path class="st4" d="M63.4,96.6c-0.9,0.5-1.7,1-2.5,1.6c14.5,10.7,37.7,13,52.8,6.8c1.9-6.4,2.3-13.1,1.1-19.7
							c-8.1-0.2-15.3-3.8-17.8-12.8c-3.1,1.2-6.2,2.6-9.1,4.2c-2.7,1.5-5.1-2.1-3-3.8c-2.5-3.9-4.1-8.3-4.7-12.9
							c-0.4-2.7,4-4.2,4.8-1.2c0,0.2,0.1,0.3,0.1,0.5c4,1.5,9.1-1.5,7.1-5.7C90,48.9,80.1,44,75.8,47.9c-1.5,1.3-2.3,5.4-2.6,8.4H74
							c3.4,0.2,3.9,5.6,0,5.5c-5.6,0-11.2,0.8-16.6,2.4c-1.3-3.7-5.2-14.8-10.5-14.8c-5.8-0.1-15,11.8-15.1,16.7
							c0,4.5,6.7,5.9,9.5,3.2c2.6-2.5,4.3-4.7,5.1-7.5c0.7-2.6,4.8-2,4.7,0.7c-0.3,4-2,9.3-6.1,12.2c-0.6,23.3,0.6,43.2,2.5,66.6
							l-20.8,9.8c-14,6.6-4.1,19.1-12.3,27.6v10.9h3.8c0-1.2-0.5-2.4-1.4-3.3c-0.7-0.6-0.8-1.7-0.2-2.4c0.4-0.4,0.9-0.6,1.5-0.6l0,0
							l0.7-4.8c4.3-1.4,11.2-4.1,12.9-10.6c0.8-2.8,4.2-1.5,3.8,1.2c-0.2,1.2-0.4,2.4-0.8,3.5c8.6,0.3,18.3,1.8,26.9,2.4
							c1.1-4.7,2.1-10.3-3-18c-1.4-2.2,2.5-3.5,3.5-2c5,6.7,7.2,14.3,5.4,22.7l4.3,11.9h4.3c0.1-1.3-0.6-2.4-1.8-2.9
							c-0.8-0.3-1.3-1.3-0.9-2.1c0,0,0-0.1,0-0.1c0.2-0.4,0.4-0.7,0.8-0.9l-1.7-7.8c4.3-2.4,8.2-6.4,9.6-10.7
							c0.7-2.2,4.1-0.6,3.8,1.2c-0.4,2.1-1.1,4.2-2.1,6.1c6.7-3.4,9.8-10,10.2-20.5c0.5-12.5-3.4-27.3-7.5-37.6
							c-10.4-1.2-20.7-4.8-28.8-10.6c-0.4,2.1-0.2,3.8-1.6,4.7c-1.2,0.8-2.7,0.4-3.5-0.7c0-0.1-0.1-0.1-0.1-0.2
							c-0.2-0.3-0.3-0.7-0.4-1.1c-1-11.5,5.9-14.3,9.3-15C64.1,90.9,66,95.1,63.4,96.6L63.4,96.6z"/>
						<path class="st3" d="M63.4,96.6c-0.9,0.5-1.7,1-2.5,1.6c14.5,10.7,37.7,13,52.8,6.8c1.9-6.4,2.3-13.1,1.1-19.7
							c-8.1-0.2-15.3-3.8-17.8-12.8c-3.1,1.2-6.2,2.6-9.1,4.2c-2.7,1.5-5.1-2.1-3-3.8c-2.5-3.9-4.1-8.3-4.7-12.9
							c-0.4-2.7,4-4.2,4.8-1.2c0,0.2,0.1,0.3,0.1,0.5c4,1.5,9.1-1.5,7.1-5.7C90,48.9,80.1,44,75.8,47.9c-1.5,1.3-2.3,5.4-2.6,8.4H74
							c3.4,0.2,3.9,5.6,0,5.5h-3.3c3.5,12-3.4,24.6-15.4,28.1c-1.9,0.5-3.8,0.8-5.7,0.9c-2.5,9.6-2.3,19.9,0.9,27.3
							c9.2,21.5,9.5,27.9-8.6,30.1c-7.1,0.9-11.4,2.8-15,6.2c1.2,6.5-2.6,9.7-8.5,9c-0.4,5.2,0.3,10.8-4,15.3v10.9h3.8
							c0-1.2-0.5-2.4-1.4-3.3c-0.7-0.6-0.8-1.7-0.2-2.4c0.4-0.4,0.9-0.6,1.5-0.6l0,0l0.7-4.8c4.3-1.4,11.2-4,12.9-10.5
							c0.8-2.8,4.2-1.5,3.8,1.2c-0.2,1.2-0.4,2.4-0.8,3.5c8.6,0.3,18.3,1.8,26.9,2.4c1.1-4.7,2.1-10.3-3-18c-1.4-2.2,2.5-3.5,3.5-2
							c5,6.7,7.2,14.3,5.4,22.7l4.3,11.9h4.3c0.1-1.3-0.6-2.4-1.8-2.9c-0.8-0.3-1.3-1.3-0.9-2.1c0,0,0-0.1,0-0.1
							c0.2-0.4,0.4-0.7,0.8-0.9l-1.7-7.8c4.3-2.4,8.2-6.4,9.6-10.7c0.7-2.2,4.1-0.6,3.8,1.2c-0.4,2.1-1.1,4.2-2.1,6.1
							c6.7-3.4,9.8-10,10.2-20.5c0.5-12.5-3.4-27.3-7.5-37.6c-10.4-1.2-20.7-4.8-28.8-10.6c-0.4,2.1-0.2,3.8-1.6,4.7
							c-1.2,0.8-2.7,0.4-3.5-0.7c0-0.1-0.1-0.1-0.1-0.2c-0.2-0.3-0.3-0.7-0.4-1.1c-1-11.5,5.9-14.3,9.3-15
							C64.1,90.9,66,95.1,63.4,96.6L63.4,96.6z"/>
						<path class="st4" d="M63.4,96.6c-0.9,0.5-1.7,1-2.5,1.6c17.1,7,37.7,8,54.3-0.3c0.5-4.2,0.4-8.4-0.3-12.6
							c-8.1-0.2-15.3-3.8-17.8-12.8c-3.1,1.2-6.1,2.6-9.1,4.2c-2.7,1.5-5.1-2.1-3-3.8c-2.5-3.9-4.1-8.3-4.7-12.9
							c-0.4-2.7,4-4.2,4.8-1.2c0,0.2,0.1,0.3,0.1,0.5c4,1.5,9.1-1.5,7.1-5.7c-2.2-4.7-12.1-9.6-16.4-5.7c-1.5,1.3-2.3,5.4-2.6,8.4
							h0.8c3.4,0.2,3.9,5.6,0,5.5h-3.3c3.5,12-3.4,24.6-15.4,28.1c-1.9,0.5-3.8,0.8-5.7,0.9c-2.5,9.6-2.3,19.9,0.9,27.3
							c9.2,21.5,9.5,27.9-8.6,30.1c-7.1,0.9-11.4,2.8-15,6.2c1.2,6.5-2.6,9.7-8.5,9c-0.4,5.2,0.3,10.8-4,15.3v10.9h3.8
							c0-1.2-0.5-2.4-1.4-3.3c-0.7-0.6-0.8-1.7-0.2-2.4c0.4-0.4,0.9-0.6,1.5-0.6h-0.1l0.7-4.8c4.3-1.4,11.2-4,12.9-10.5
							c0.8-2.8,4.2-1.5,3.8,1.2c19.3,2.5,24.1-4.2,25.2-8.5c-0.5-1.3-1.2-2.5-2-3.6c-1.4-2.2,2.5-3.5,3.5-2c5,6.7,7.2,14.3,5.4,22.7
							l4.3,11.9h4.2c0.1-1.3-0.6-2.4-1.8-2.9c-0.8-0.3-1.3-1.3-0.9-2.1c0,0,0-0.1,0-0.1c0.2-0.4,0.4-0.7,0.8-0.9l-1.7-7.8
							c4.3-2.4,8.2-6.4,9.6-10.7c0.7-2.2,4.1-0.6,3.8,1.2c-0.4,2.1-1.1,4.2-2.1,6.1c6.7-3.4,9.8-10,10.2-20.5
							c0.5-12.5-3.4-27.3-7.5-37.6c-10.4-1.2-20.7-4.8-28.8-10.6c-0.4,2.1-0.2,3.8-1.6,4.7c-1.2,0.8-2.7,0.4-3.5-0.7
							c0-0.1-0.1-0.1-0.1-0.2c-0.2-0.3-0.3-0.7-0.4-1.1c-1-11.5,5.9-14.3,9.3-15C64.1,90.9,66,95.1,63.4,96.6L63.4,96.6z"/>
						<ellipse class="st2" cx="59.2" cy="77.6" rx="5" ry="6.9"/>
						<ellipse class="st2" cx="77.5" cy="73.4" rx="3.4" ry="4.8"/>
					</g>
				</g>
				<g>
					<path class="st2" d="M202.1,88h-6.5v28.8h-23.8V28.7h28.8c10.1,0,17.6,2.3,22.6,7s7.4,12.3,7.4,22.8s-2.3,18.2-7,22.7
						S211.7,88,202.1,88z M204.8,68.9c0.9-1.6,1.3-4.5,1.3-8.7s-0.5-7.1-1.4-8.8s-2.8-2.6-5.7-2.6h-3.4v22.4h4
						C202.2,71.3,203.9,70.5,204.8,68.9z"/>
					<path class="st2" d="M264.5,47.2c9.7,0,16.7,2.3,20.9,7s6.3,11.4,6.3,20.1c0,1.1-0.3,6.2-1,15.3h-32.3c0,7.1,3.3,10.6,9.8,10.6
						c3.1,0,9.2-1.1,18.3-3.3l2,17.6c-7.7,2.4-15.7,3.7-23.8,3.7c-9.7,0-17.2-3.2-22.4-9.6s-7.8-15.1-7.8-26
						C234.4,59,244.5,47.2,264.5,47.2z M264,67.5c-2.5,0-4.1,0.8-4.8,2.5s-1.1,4.2-1.1,7.6h12.3v-3.4
						C270.3,69.7,268.2,67.5,264,67.5z"/>
					<path class="st2" d="M336.6,117c-6,0.8-12.1,1.2-18.2,1.3c-5.2,0-9.2-1.3-12.1-4s-4.3-7.4-4.3-14v-33h-6.8V49.7h7.9l1.3-13.1
						h21.4v13.1h12.6l-1,17.6h-11.8v28.2c0,2,0.9,3,2.8,3c0.2,0,3.1-0.1,8.8-0.4L336.6,117z"/>
					<path class="st2" d="M381.6,117c-6,0.8-12.1,1.2-18.2,1.3c-5.2,0-9.2-1.3-12.1-4s-4.3-7.4-4.3-14v-33h-6.9V49.7h7.9l1.3-13.1
						h21.4v13.1h12.6l-1,17.6h-11.8v28.2c0,2,0.9,3,2.8,3c0.2,0,3.1-0.1,8.8-0.4L381.6,117z"/>
					<path class="st2" d="M417.2,47.2c9.7,0,16.7,2.3,20.9,7s6.3,11.4,6.3,20.1c0,1.1-0.3,6.2-1,15.3h-32.3c0,7.1,3.3,10.6,9.8,10.6
						c3.1,0,9.2-1.1,18.3-3.3l2,17.6c-7.7,2.4-15.7,3.7-23.8,3.7c-9.7,0-17.2-3.2-22.4-9.6s-7.8-15.1-7.8-26
						C387.1,59,397.1,47.2,417.2,47.2z M416.6,67.5c-2.5,0-4.1,0.8-4.8,2.5s-1.1,4.2-1.1,7.6H423v-3.4
						C423,69.7,420.9,67.5,416.6,67.5z"/>
					<path class="st2" d="M474.5,78.7v38.2h-23.6v-68h20.7l1.5,4.1h0.6c1.8-2.1,4-3.8,6.6-4.8c2.2-0.7,5.8-1.1,10.9-1.1l-1,22.7
						h-6.5c-3.7,0-6.1,0.6-7.3,1.7S474.5,75.1,474.5,78.7z"/>
				</g>
			</g>
		</g>
	</g>
</g>
<g>
	<path class="st2" d="M312.8,164.1h-9.4v-32.9h18.5v5.5h-9.1v8h8.3v5.5h-8.3V164.1z"/>
	<path class="st2" d="M340.5,164.1H330c-1.6,0-3-0.5-4.2-1.5c-1.2-1-1.7-2.3-1.7-4v-21.9c0-1.6,0.6-3,1.7-4s2.6-1.5,4.2-1.5h10.5
		c1.6,0,3,0.5,4.2,1.5c1.2,1,1.7,2.3,1.7,4v21.9c0,1.6-0.6,3-1.7,4C343.5,163.6,342.1,164.1,340.5,164.1z M336.1,158.7
		c0.2,0,0.4-0.1,0.6-0.2s0.3-0.4,0.3-0.6v-20.2c0-0.3-0.1-0.5-0.3-0.6c-0.2-0.2-0.4-0.2-0.6-0.2h-1.8c-0.2,0-0.4,0.1-0.6,0.2
		c-0.2,0.2-0.3,0.4-0.3,0.6v20.2c0,0.3,0.1,0.5,0.3,0.6c0.2,0.2,0.4,0.2,0.6,0.2H336.1z"/>
	<path class="st2" d="M373.2,164.1h-9l-3.3-12.9h-1.5v12.9H350v-32.9h16.4c1.6,0,3,0.5,4.2,1.5s1.7,2.3,1.7,4v9.1
		c0,2.2-1,3.7-2.9,4.7L373.2,164.1z M362,145.8c0.2,0,0.4-0.1,0.6-0.3c0.2-0.2,0.3-0.4,0.3-0.6v-7.4c0-0.3-0.1-0.5-0.3-0.6
		c-0.2-0.2-0.4-0.2-0.6-0.2h-2.6v9.1H362z"/>
	<path class="st2" d="M405.7,164.1h-13.1l-5.9-32.9h9.3l3.2,21.7l3.2-21.7h9.2L405.7,164.1z"/>
	<path class="st2" d="M432.3,164.1h-18.5v-32.9h18.5v5.5h-9.1v7.6h8.5v5.5h-8.5v8.8h9.1V164.1z"/>
	<path class="st2" d="M448.7,164.1h-9.4v-27.4h-6v-5.5h21.5v5.5h-6.1V164.1z"/>
	<path class="st2" d="M472.4,164.1h-10.5c-1.6,0-3-0.5-4.2-1.5c-1.2-1-1.7-2.3-1.7-4v-7.4h9.4v6.6c0,0.3,0.1,0.5,0.3,0.6
		s0.4,0.2,0.6,0.2h1.8c0.2,0,0.4-0.1,0.6-0.2c0.2-0.2,0.3-0.4,0.3-0.6v-5.1c0-0.3-0.2-0.6-0.5-0.8l-9.3-5.1
		c-2.1-1.1-3.1-2.7-3.1-4.8v-5.3c0-1.6,0.6-3,1.7-4c1.2-1,2.6-1.5,4.2-1.5h10.5c1.6,0,3,0.5,4.2,1.5s1.7,2.3,1.7,4v6.2h-9.4v-5.4
		c0-0.3-0.1-0.5-0.3-0.6c-0.2-0.2-0.4-0.2-0.6-0.2h-1.8c-0.2,0-0.4,0.1-0.6,0.2c-0.2,0.2-0.3,0.4-0.3,0.6v3.9c0,0.3,0.1,0.6,0.4,0.8
		l9.4,5.1c2.1,1.1,3.1,2.7,3.1,4.7v6.5c0,1.6-0.6,3-1.7,4C475.4,163.6,474.1,164.1,472.4,164.1z"/>
</g>
<text transform="matrix(1 0 0 1 353.5 -90.8502)" class="st2" style="font-family:'RockstarExtraBold'; font-size:46.9587px;">For Vets</text>
</svg>
