<svg xmlns="http://www.w3.org/2000/svg" xmlns:xlink="http://www.w3.org/1999/xlink" viewBox="0 0 920.33 195.97"><defs><style>.cls-1{fill:none;}.cls-2{fill:#ff7c00;}.cls-3{clip-path:url(#clip-path);}.cls-4,.cls-7{fill:#131637;}.cls-5{fill:#dfdfdf;}.cls-6{fill:#fff;}.cls-7{font-size:141.88px;font-family:PassionOne-Regular, Passion One;}</style><clipPath id="clip-path"><circle class="cls-1" cx="76.28" cy="73.38" r="73.38"/></clipPath></defs><title>logo2_2</title><g id="Layer_2" data-name="Layer 2"><g id="Layer_3" data-name="Layer 3"><circle class="cls-2" cx="76.28" cy="73.38" r="73.38"/><g class="cls-3"><path class="cls-4" d="M90.18,69.79c22.23-11.91,48.41-10.6,44.11,19.67-2.47,17.38-21.05,25.65-40.95,25.3,4.89,13.5,10,35.32,4.55,50.21.26,4.86-1.44,6.87-2.79,12.26l.54,6.37c3.13,2.27,3.62,6.76,3.16,11.21H83L82.81,196H67.42l-5.28-14.55c-5.43-.37-11.51-1.21-17.4-1.87l-3.48,1.84-.45,2.78c2.52,2.4,2.9,6.53,2.48,10.64h-16l-2-12.94c-.7.3-1.4.58-2.11.84l-.79,2.48c2.5,2.41,2.48,6.7,1.42,10.79h-16v-20.1c5.53-4.62,3.1-8.36,4.41-16.38-13.53-4.08-16-20.26-6.32-29.62a4.14,4.14,0,0,1,7,3.35c-.58,6.37.33,12.47,7.18,14.19,3.11-2.06,16.42-8.06,20.49-10a569.38,569.38,0,0,1-2.23-60.54c-7.76.49-14.88-5.19-13.19-13.11,1.79-8.44,18.43-31.35,31.82-15.08a33.73,33.73,0,0,1,4.75,8.07c1.63-.22,3.28-.37,4.93-.46.44-4.76,1.73-10.82,5.32-13.71,8.34-6.72,22.36,0,26.59,9.35C102,59.79,95,66.66,87.64,65.9a32.1,32.1,0,0,0,2.54,3.89Zm-9.64,110.5-1.41.33.18,3.94a8.29,8.29,0,0,1,2.22,2Z"/><path class="cls-5" d="M121.06,84.82a49.86,49.86,0,0,1,0,15.77,18.82,18.82,0,0,0,6.92-12,31.21,31.21,0,0,0,.32-5.84A38.71,38.71,0,0,1,121.06,84.82Z"/><path class="cls-6" d="M121.06,84.82a48.58,48.58,0,0,1,.62,9.16A48.35,48.35,0,0,0,128,88.57a31.21,31.21,0,0,0,.32-5.84,38.71,38.71,0,0,1-7.27,2.09Z"/><path class="cls-6" d="M63.26,96.58a15.47,15.47,0,0,0-2.46,1.64c14.48,10.69,37.74,13,52.8,6.78a42.94,42.94,0,0,0,1.13-19.65c-8.1-.15-15.29-3.79-17.83-12.76a67.59,67.59,0,0,0-9.11,4.22c-2.65,1.48-5.12-2.11-3-3.82a31.92,31.92,0,0,1-4.73-12.92c-.38-2.65,4-4.18,4.77-1.15,0,.16.08.31.12.46,4,1.55,9.08-1.49,7.12-5.72C89.9,48.91,80,44.09,75.63,47.94,74.12,49.27,73.34,53.3,73,56.3l.79,0c3.4.21,3.88,5.57,0,5.48a58,58,0,0,0-16.62,2.36C55.92,60.4,52,49.35,46.65,49.3c-5.75-.06-15,11.8-15.08,16.69,0,4.52,6.73,5.89,9.5,3.24,2.6-2.49,4.29-4.66,5.07-7.45.72-2.58,4.83-2,4.66.71-.26,3.95-2,9.26-6.13,12.21-.62,23.3.56,43.16,2.54,66.58l-20.83,9.83c-14,6.6-4.07,19.05-12.26,27.6v10.89h3.75a4.49,4.49,0,0,0-1.43-3.28,1.72,1.72,0,0,1,1.32-3l.21,0,.74-4.75C23,177.16,29.92,174.51,31.65,168c.75-2.83,4.2-1.49,3.84,1.17a17.48,17.48,0,0,1-.81,3.48c8.64.25,18.26,1.79,26.92,2.4,1.07-4.66,2.1-10.3-3-18-1.42-2.16,2.45-3.47,3.55-2,5,6.73,7.18,14.31,5.36,22.7l4.3,11.86H76a2.89,2.89,0,0,0-1.79-2.91,1.7,1.7,0,0,1-.09-3.09l-1.73-7.78c4.26-2.39,8.2-6.38,9.57-10.7.71-2.22,4.14-.63,3.8,1.19a21.54,21.54,0,0,1-2.13,6.07c6.65-3.41,9.8-10,10.2-20.54.48-12.51-3.42-27.27-7.48-37.56-10.42-1.22-20.73-4.77-28.83-10.58-.37,2.07-.18,3.81-1.6,4.71a2.63,2.63,0,0,1-4-2c-1-11.52,5.91-14.32,9.33-15,2.78-.55,4.67,3.66,2,5.14Z"/><path class="cls-5" d="M63.26,96.58a15.47,15.47,0,0,0-2.46,1.64c14.48,10.69,37.74,13,52.8,6.78a42.94,42.94,0,0,0,1.13-19.65c-8.1-.15-15.29-3.79-17.83-12.76a67.59,67.59,0,0,0-9.11,4.22c-2.65,1.48-5.12-2.11-3-3.82a31.92,31.92,0,0,1-4.73-12.92c-.38-2.65,4-4.18,4.77-1.15,0,.16.08.31.12.46,4,1.55,9.08-1.49,7.12-5.72C89.9,48.91,80,44.09,75.63,47.94,74.12,49.27,73.34,53.3,73,56.3l.79,0c3.4.21,3.88,5.57,0,5.48q-1.72,0-3.3,0a22.66,22.66,0,0,1-21.08,29c-2.54,9.58-2.29,19.88.89,27.3,9.2,21.47,9.47,27.9-8.64,30.12-7.14.87-11.39,2.84-15,6.19,1.2,6.46-2.6,9.67-8.54,9-.39,5.22.29,10.78-4,15.27v10.89h3.75a4.49,4.49,0,0,0-1.43-3.28,1.72,1.72,0,0,1,1.32-3l.21,0,.74-4.75C23,177.16,29.92,174.51,31.65,168c.75-2.83,4.2-1.49,3.84,1.17a17.48,17.48,0,0,1-.81,3.48c8.64.25,18.26,1.79,26.92,2.4,1.07-4.66,2.1-10.3-3-18-1.42-2.16,2.45-3.47,3.55-2,5,6.73,7.18,14.31,5.36,22.7l4.3,11.86H76a2.89,2.89,0,0,0-1.79-2.91,1.7,1.7,0,0,1-.09-3.09l-1.73-7.78c4.26-2.39,8.2-6.38,9.57-10.7.71-2.22,4.14-.63,3.8,1.19a21.54,21.54,0,0,1-2.13,6.07c6.65-3.41,9.8-10,10.2-20.54.48-12.51-3.42-27.27-7.48-37.56-10.42-1.22-20.73-4.77-28.83-10.58-.37,2.07-.18,3.81-1.6,4.71a2.63,2.63,0,0,1-4-2c-1-11.52,5.91-14.32,9.33-15,2.78-.55,4.67,3.66,2,5.14Z"/><path class="cls-6" d="M63.26,96.58a15.47,15.47,0,0,0-2.46,1.64c17.13,7,37.73,8,54.26-.25a41.83,41.83,0,0,0-.32-12.62c-8.1-.15-15.29-3.79-17.83-12.76a67.58,67.58,0,0,0-9.11,4.22c-2.65,1.48-5.12-2.11-3-3.82a31.92,31.92,0,0,1-4.73-12.92c-.38-2.65,4-4.18,4.77-1.15,0,.16.08.31.12.46,4,1.55,9.08-1.49,7.12-5.72C89.9,48.91,80,44.09,75.63,47.94,74.12,49.27,73.34,53.3,73,56.3l.79,0c3.4.21,3.88,5.57,0,5.48q-1.72,0-3.3,0a22.66,22.66,0,0,1-21.08,29c-2.54,9.58-2.29,19.88.89,27.3,9.2,21.47,9.47,27.9-8.64,30.12-7.14.87-11.39,2.84-15,6.19,1.2,6.46-2.6,9.67-8.54,9-.39,5.22.29,10.78-4,15.27v10.89h3.75a4.49,4.49,0,0,0-1.43-3.28,1.72,1.72,0,0,1,1.32-3l.21,0,.74-4.75C23,177.16,29.92,174.51,31.65,168c.75-2.83,4.2-1.49,3.84,1.17,19.33,2.5,24.07-4.21,25.18-8.47a27.1,27.1,0,0,0-2-3.64c-1.42-2.16,2.45-3.47,3.55-2,5,6.73,7.18,14.31,5.36,22.7l4.3,11.86H76a2.89,2.89,0,0,0-1.79-2.91,1.7,1.7,0,0,1-.09-3.09l-1.73-7.78c4.26-2.39,8.2-6.38,9.57-10.7.71-2.22,4.14-.63,3.8,1.19a21.55,21.55,0,0,1-2.13,6.07c6.65-3.41,9.8-10,10.2-20.54.48-12.51-3.42-27.27-7.48-37.56-10.42-1.22-20.73-4.77-28.83-10.58-.37,2.07-.18,3.81-1.6,4.71a2.63,2.63,0,0,1-4-2c-1-11.52,5.91-14.32,9.33-15,2.78-.55,4.67,3.66,2,5.14Z"/><ellipse class="cls-4" cx="59.13" cy="77.61" rx="4.98" ry="6.91"/><ellipse class="cls-4" cx="77.41" cy="73.38" rx="3.44" ry="4.78"/></g><text class="cls-7" transform="translate(165.39 116.83)">Petter for vets</text></g></g></svg>