<svg xmlns="http://www.w3.org/2000/svg" version="1.1" xmlns:xlink="http://www.w3.org/1999/xlink" width="512" height="512" x="0" y="0" viewBox="0 0 24 24" style="enable-background:new 0 0 512 512" xml:space="preserve"><g><path d="M19.071 2.936A10 10 0 1 0 4.937 17.085L12 23.994l7.071-6.917a10 10 0 0 0 0-14.141ZM17 14H7V9.409a2.513 2.513 0 0 1 .983-1.986l2.5-1.91a2.507 2.507 0 0 1 3.035 0l2.5 1.91A2.515 2.515 0 0 1 17 9.409Zm-2.2-4.987a.5.5 0 0 1 .2.4V12h-2v-2h-2v2H9V9.409a.5.5 0 0 1 .2-.4L11.7 7.1a.5.5 0 0 1 .608 0Z" fill="#ff7c00" opacity="1" data-original="#000000"></path></g></svg>